<?xml version="1.0" encoding="utf-8"?>
<!-- Generator: Adobe Illustrator 17.0.0, SVG Export Plug-In . SVG Version: 6.00 Build 0)  -->
<!DOCTYPE svg PUBLIC "-//W3C//DTD SVG 1.1//EN" "http://www.w3.org/Graphics/SVG/1.1/DTD/svg11.dtd">
<svg version="1.1" id="Layer_1" xmlns="http://www.w3.org/2000/svg" xmlns:xlink="http://www.w3.org/1999/xlink" x="0px" y="0px"
	 width="1200px" height="1200px" viewBox="0 0 1200 1200" enable-background="new 0 0 1200 1200" xml:space="preserve">
<g>
	<g>
		<path fill="#282727" d="M983.83,581.044c0,0-12.431-18.635-24.862-19.673c-12.409-1.032-40.363-6.215-51.756-10.35
			c-11.382-4.146-20.711-20.706-42.449-47.632c-21.738-26.911-38.309-62.112-49.692-69.354
			c-11.382-7.259-14.485-26.926-23.813-37.277c-9.318-10.345-35.196-73.511-46.579-94.206
			c-11.399-20.716-43.493-34.164-43.493-34.164l3.113-6.21c14.485-6.216,19.668-51.772,19.668-51.772
			c3.097,6.215,8.286,45.557,8.286,45.557c5.172-11.388-3.113-64.182-17.608-85.92c-14.496-21.749-39.336-71.435-90.077-50.735
			c-50.721,20.7-27.943,97.313-27.943,97.313c-27.949,24.862-25.886,80.753-25.886,80.753c-15.52,5.178-22.773,45.557-22.773,45.557
			l-48.657,53.826c-4.143-7.248-23.817-20.695-39.337-32.088c-15.528-11.398-38.312-42.455-42.449-54.87
			c-4.145-12.425-11.39-23.819-18.635-25.889c-7.25-2.075-16.563-6.216-26.916-16.561c-6.181-6.172-6.081,0.171-5.672,6.087
			c-17.478-4.622-41.952-3.985-55.979-3.076c-5.822-23.214-7.681-43.744-1.508-55.811l-10.337,6.21l-9.326-5.173L50,291.164
			l68.327,199.81l238.111-77.645l1.038-7.243l7.245-2.075c0,0-13.375-25.338-27.464-57.993c10.708-7.547,19.665-14.506,26.884-20.93
			c9.058,9.863,31.248,22.161,37.854,25.076c9.313,4.145,25.878,30.04,25.878,30.04c35.199,60.042,76.613,73.5,76.613,73.5
			c21.738-7.243,66.265-63.166,72.473-69.349c6.205-6.227,16.558-6.227,16.558-6.227c22.77,5.178,22.77,70.398,23.819,83.856
			c1.027,13.458,0,16.566-24.851,44.509c-24.846,27.948-35.199,90.076-35.199,119.062s1.032,32.099-16.563,55.902
			c-15.769,21.337-45.65,27.707-51.705,28.809c-0.222,0.984-0.562,2.386-1.097,4.317c-3.1,11.393,20.703,19.684,20.703,19.684
			c5.18-5.183,23.816,7.242,23.816,7.242s-10.353,39.347-19.673,45.547c-9.32,6.215-33.123,1.032-68.322,11.388
			c-35.204,10.361-91.106,44.525-97.319,49.702c-6.216,5.172-25.886,1.037-25.886,1.037c-12.415-24.862-33.131-14.501-40.374-8.29
			c-7.253,6.215-23.81,8.29-23.81,8.29v4.135l23.81-1.037c0,0-1.032,7.232-2.07,15.522c-1.032,8.291-18.633,23.83-18.633,23.83
			c-28.986,31.048,18.633,60.029,18.633,60.029c20.709,3.113,12.429-27.943,23.811-35.196c11.388-7.242,81.785-33.123,81.785-33.123
			c23.816-5.173,115.949-23.83,115.949-23.83c19.678-9.291,45.549-4.135,45.549-4.135c35.207-5.156,68.333-83.845,68.333-83.845
			c4.14-7.254,53.842-4.151,53.842-4.151l-1.043-19.673c8.286,3.107,78.683-5.162,78.683-5.162s18.635,19.668,23.813,27.948
			c5.178,8.291,7.253,14.485-8.291,48.665c-15.522,34.158-11.382,143.905-11.382,148.024c0,4.151,3.113,18.646-8.28,19.684
			c-11.388,1.038-24.846,32.094-18.636,37.272c6.21,5.178,11.383,52.794,11.383,52.794l5.188,1.027c0,0,2.065-20.7-3.113-32.083
			c-5.173-11.383,7.253-11.383,7.253-11.383c7.243-1.027,23.814,21.738,39.336,42.439c15.534,20.722,60.047-2.075,60.047-2.075
			c10.345-11.382-19.673-18.625-27.953-25.889c-8.28-7.242-14.485-16.55-18.635-37.26c-4.129-20.69,1.037-69.354,5.178-83.861
			c4.151-14.485,19.673-82.809,21.738-93.165c2.075-10.361,5.178-28.986,9.318-38.309c4.14-9.317,11.393-34.158,11.393-34.158
			c1.027-26.916-102.496-160.463-102.496-160.463c3.113-18.646,4.14-181.174,4.14-181.174c5.178-4.14,6.215-8.28,6.215-8.28
			c4.14,11.393,69.365,99.378,77.645,106.631c8.28,7.243,53.843,48.665,53.843,48.665c6.205,15.512,26.916,11.377,35.196,11.377
			c8.28,0,18.625,11.388,18.625,11.388c8.291,8.286,17.609,1.038,17.609,1.038l11.382,3.108c0,0,0,0,1.027-3.108
			c1.048-3.108-13.447-13.463-13.447-13.463c9.318-5.178,21.749,11.393,21.749,11.393c4.129,0,1.027-7.253,1.027-7.253
			C979.678,584.142,983.83,581.044,983.83,581.044z M336.23,343.626c-9.535-22.273-19.259-47.691-25.271-70.74
			c14.228-0.861,38.79-1.444,55.53,3.134c0.195,2.883,0.249,5.103-0.73,4.777c-3.113-1.033-1.038,15.539-1.038,15.539
			c-6.207,2.075-3.1,18.636-3.1,18.636c-2.26,2.016-1.594,4.867,0.834,8.104C355.741,329.093,347.137,335.902,336.23,343.626z"/>
		<path fill="#282727" d="M487.921,710.457c0,0,0.391-0.07,1.097-0.193C490.055,705.482,487.921,710.457,487.921,710.457z"/>
	</g>
	<g>
		<path fill="#282727" d="M973.934,572.706l-3.017,0.46c4.782,4.301,9.992,9.318,15.758,15.325
			c-18.85,11.682-40.523,23.985-60.561,32.597c-2.172-10.152-5.05-26.21-5.21-40.326l-2.279,0.347
			c0.15,14.544,3.081,30.789,5.296,40.898c-20.219,8.467-38.534,12.982-50.313,9.045l7.05,8.5l-3.402,9.157l101.277,206.074
			L1150,765.46l-103.01-204.848l-6.686,0.053l-2.878-6.274c0,0-21.096,15.592-48.718,32.837
			C983.466,581.767,978.577,576.974,973.934,572.706z"/>
	</g>
</g>
</svg>
